<mxfile host="app.diagrams.net" modified="2021-03-04T01:08:17.191Z" agent="5.0 (Macintosh; Intel Mac OS X 10_15_7) AppleWebKit/537.36 (KHTML, like Gecko) Chrome/88.0.4324.192 Safari/537.36" etag="mT_P2bwUItSBqRw7J15T" version="14.4.4" type="github">
  <diagram id="C5RBs43oDa-KdzZeNtuy" name="Page-1">
    <mxGraphModel dx="1426" dy="3109" grid="0" gridSize="12" guides="1" tooltips="1" connect="1" arrows="1" fold="1" page="1" pageScale="1" pageWidth="827" pageHeight="1169" math="0" shadow="1">
      <root>
        <mxCell id="WIyWlLk6GJQsqaUBKTNV-0" />
        <mxCell id="WIyWlLk6GJQsqaUBKTNV-1" parent="WIyWlLk6GJQsqaUBKTNV-0" />
        <mxCell id="WIyWlLk6GJQsqaUBKTNV-2" value="" style="rounded=0;html=1;jettySize=auto;orthogonalLoop=1;fontSize=11;endArrow=block;endFill=0;endSize=8;strokeWidth=1;shadow=0;labelBackgroundColor=none;edgeStyle=orthogonalEdgeStyle;" parent="WIyWlLk6GJQsqaUBKTNV-1" source="WIyWlLk6GJQsqaUBKTNV-3" target="WIyWlLk6GJQsqaUBKTNV-6" edge="1">
          <mxGeometry relative="1" as="geometry" />
        </mxCell>
        <mxCell id="WIyWlLk6GJQsqaUBKTNV-3" value="Start" style="rounded=1;whiteSpace=wrap;html=1;fontSize=12;glass=0;strokeWidth=1;shadow=0;" parent="WIyWlLk6GJQsqaUBKTNV-1" vertex="1">
          <mxGeometry x="117" y="-2303" width="120" height="40" as="geometry" />
        </mxCell>
        <mxCell id="WIyWlLk6GJQsqaUBKTNV-5" value="No" style="edgeStyle=orthogonalEdgeStyle;rounded=0;html=1;jettySize=auto;orthogonalLoop=1;fontSize=11;endArrow=block;endFill=0;endSize=8;strokeWidth=1;shadow=0;labelBackgroundColor=none;entryX=0;entryY=0.5;entryDx=0;entryDy=0;" parent="WIyWlLk6GJQsqaUBKTNV-1" source="WIyWlLk6GJQsqaUBKTNV-6" target="M1q_dZqmH7TPnjKuv0Y3-0" edge="1">
          <mxGeometry y="10" relative="1" as="geometry">
            <mxPoint as="offset" />
            <mxPoint x="276" y="-2126" as="targetPoint" />
          </mxGeometry>
        </mxCell>
        <mxCell id="M1q_dZqmH7TPnjKuv0Y3-9" value="Yes" style="edgeStyle=orthogonalEdgeStyle;rounded=0;orthogonalLoop=1;jettySize=auto;html=1;" edge="1" parent="WIyWlLk6GJQsqaUBKTNV-1" source="WIyWlLk6GJQsqaUBKTNV-6" target="M1q_dZqmH7TPnjKuv0Y3-8">
          <mxGeometry relative="1" as="geometry" />
        </mxCell>
        <mxCell id="WIyWlLk6GJQsqaUBKTNV-6" value="0 or 1 or 2" style="rhombus;whiteSpace=wrap;html=1;shadow=0;fontFamily=Helvetica;fontSize=12;align=center;strokeWidth=1;spacing=6;spacingTop=-4;" parent="WIyWlLk6GJQsqaUBKTNV-1" vertex="1">
          <mxGeometry x="127" y="-2185" width="100" height="80" as="geometry" />
        </mxCell>
        <mxCell id="WIyWlLk6GJQsqaUBKTNV-11" value="End" style="rounded=1;whiteSpace=wrap;html=1;fontSize=12;glass=0;strokeWidth=1;shadow=0;" parent="WIyWlLk6GJQsqaUBKTNV-1" vertex="1">
          <mxGeometry x="109" y="-1644" width="120" height="40" as="geometry" />
        </mxCell>
        <mxCell id="M1q_dZqmH7TPnjKuv0Y3-3" value="Yes" style="edgeStyle=orthogonalEdgeStyle;rounded=0;orthogonalLoop=1;jettySize=auto;html=1;exitX=0.5;exitY=1;exitDx=0;exitDy=0;entryX=0.5;entryY=0;entryDx=0;entryDy=0;" edge="1" parent="WIyWlLk6GJQsqaUBKTNV-1" source="M1q_dZqmH7TPnjKuv0Y3-0" target="M1q_dZqmH7TPnjKuv0Y3-2">
          <mxGeometry relative="1" as="geometry" />
        </mxCell>
        <mxCell id="M1q_dZqmH7TPnjKuv0Y3-6" style="edgeStyle=orthogonalEdgeStyle;rounded=0;orthogonalLoop=1;jettySize=auto;html=1;exitX=1;exitY=0.5;exitDx=0;exitDy=0;" edge="1" parent="WIyWlLk6GJQsqaUBKTNV-1" source="M1q_dZqmH7TPnjKuv0Y3-0" target="M1q_dZqmH7TPnjKuv0Y3-5">
          <mxGeometry relative="1" as="geometry" />
        </mxCell>
        <mxCell id="M1q_dZqmH7TPnjKuv0Y3-0" value="3?" style="rhombus;whiteSpace=wrap;html=1;" vertex="1" parent="WIyWlLk6GJQsqaUBKTNV-1">
          <mxGeometry x="477" y="-2185" width="80" height="80" as="geometry" />
        </mxCell>
        <mxCell id="M1q_dZqmH7TPnjKuv0Y3-4" style="edgeStyle=orthogonalEdgeStyle;rounded=0;orthogonalLoop=1;jettySize=auto;html=1;entryX=1;entryY=0.75;entryDx=0;entryDy=0;" edge="1" parent="WIyWlLk6GJQsqaUBKTNV-1" source="M1q_dZqmH7TPnjKuv0Y3-2" target="WIyWlLk6GJQsqaUBKTNV-11">
          <mxGeometry relative="1" as="geometry">
            <Array as="points">
              <mxPoint x="619" y="-2042" />
              <mxPoint x="619" y="-1614" />
            </Array>
          </mxGeometry>
        </mxCell>
        <mxCell id="M1q_dZqmH7TPnjKuv0Y3-2" value="終わり" style="rounded=0;whiteSpace=wrap;html=1;fillColor=#ffffff;" vertex="1" parent="WIyWlLk6GJQsqaUBKTNV-1">
          <mxGeometry x="457" y="-2062" width="120" height="40" as="geometry" />
        </mxCell>
        <mxCell id="M1q_dZqmH7TPnjKuv0Y3-7" style="edgeStyle=orthogonalEdgeStyle;rounded=0;orthogonalLoop=1;jettySize=auto;html=1;entryX=1;entryY=0.75;entryDx=0;entryDy=0;" edge="1" parent="WIyWlLk6GJQsqaUBKTNV-1" source="M1q_dZqmH7TPnjKuv0Y3-5" target="WIyWlLk6GJQsqaUBKTNV-11">
          <mxGeometry relative="1" as="geometry">
            <mxPoint x="562" y="-1641" as="targetPoint" />
            <Array as="points">
              <mxPoint x="789" y="-2149" />
              <mxPoint x="789" y="-1614" />
            </Array>
          </mxGeometry>
        </mxCell>
        <mxCell id="M1q_dZqmH7TPnjKuv0Y3-5" value="error" style="shape=process;whiteSpace=wrap;html=1;backgroundOutline=1;fillColor=#ffffff;" vertex="1" parent="WIyWlLk6GJQsqaUBKTNV-1">
          <mxGeometry x="620" y="-2179" width="131" height="60" as="geometry" />
        </mxCell>
        <mxCell id="M1q_dZqmH7TPnjKuv0Y3-11" style="edgeStyle=orthogonalEdgeStyle;rounded=0;orthogonalLoop=1;jettySize=auto;html=1;entryX=0.413;entryY=0.038;entryDx=0;entryDy=0;entryPerimeter=0;" edge="1" parent="WIyWlLk6GJQsqaUBKTNV-1" source="M1q_dZqmH7TPnjKuv0Y3-8" target="M1q_dZqmH7TPnjKuv0Y3-10">
          <mxGeometry relative="1" as="geometry" />
        </mxCell>
        <mxCell id="M1q_dZqmH7TPnjKuv0Y3-8" value="自分と相手の手を出力" style="shape=process;whiteSpace=wrap;html=1;backgroundOutline=1;fillColor=#ffffff;" vertex="1" parent="WIyWlLk6GJQsqaUBKTNV-1">
          <mxGeometry x="117" y="-2069" width="120" height="60" as="geometry" />
        </mxCell>
        <mxCell id="M1q_dZqmH7TPnjKuv0Y3-13" value="YEs" style="edgeStyle=orthogonalEdgeStyle;rounded=0;orthogonalLoop=1;jettySize=auto;html=1;exitX=0.5;exitY=1;exitDx=0;exitDy=0;entryX=0.5;entryY=0;entryDx=0;entryDy=0;" edge="1" parent="WIyWlLk6GJQsqaUBKTNV-1" source="M1q_dZqmH7TPnjKuv0Y3-10" target="M1q_dZqmH7TPnjKuv0Y3-12">
          <mxGeometry relative="1" as="geometry">
            <mxPoint x="188" y="-1876" as="targetPoint" />
          </mxGeometry>
        </mxCell>
        <mxCell id="M1q_dZqmH7TPnjKuv0Y3-15" style="edgeStyle=orthogonalEdgeStyle;rounded=0;orthogonalLoop=1;jettySize=auto;html=1;entryX=0;entryY=0.5;entryDx=0;entryDy=0;" edge="1" parent="WIyWlLk6GJQsqaUBKTNV-1" source="M1q_dZqmH7TPnjKuv0Y3-10" target="M1q_dZqmH7TPnjKuv0Y3-14">
          <mxGeometry relative="1" as="geometry" />
        </mxCell>
        <mxCell id="M1q_dZqmH7TPnjKuv0Y3-10" value="自分が勝つ" style="rhombus;whiteSpace=wrap;html=1;fillColor=#ffffff;" vertex="1" parent="WIyWlLk6GJQsqaUBKTNV-1">
          <mxGeometry x="137" y="-1968" width="80" height="80" as="geometry" />
        </mxCell>
        <mxCell id="M1q_dZqmH7TPnjKuv0Y3-12" value="" style="shape=process;whiteSpace=wrap;html=1;backgroundOutline=1;fillColor=#ffffff;" vertex="1" parent="WIyWlLk6GJQsqaUBKTNV-1">
          <mxGeometry x="103" y="-1847" width="120" height="60" as="geometry" />
        </mxCell>
        <mxCell id="M1q_dZqmH7TPnjKuv0Y3-14" value="相手が勝つ" style="rhombus;whiteSpace=wrap;html=1;fillColor=#ffffff;" vertex="1" parent="WIyWlLk6GJQsqaUBKTNV-1">
          <mxGeometry x="280" y="-1963" width="80" height="80" as="geometry" />
        </mxCell>
      </root>
    </mxGraphModel>
  </diagram>
</mxfile>
